<svg xmlns="http://www.w3.org/2000/svg" xmlns:xlink="http://www.w3.org/1999/xlink" width="500" zoomAndPan="magnify" viewBox="0 0 375 374.999991" height="500" preserveAspectRatio="xMidYMid meet" version="1.0"><defs><g/><clipPath id="393c0ac368"><path d="M 67 31 L 191 31 L 191 190 L 67 190 Z M 67 31 " clip-rule="nonzero"/></clipPath><clipPath id="b1eeeb34ef"><path d="M 16.085938 58.839844 L 111.195312 -11.84375 L 240.933594 162.722656 L 145.824219 233.410156 Z M 16.085938 58.839844 " clip-rule="nonzero"/></clipPath><clipPath id="55e5e7bd9f"><path d="M 16.085938 58.839844 L 111.195312 -11.84375 L 240.933594 162.722656 L 145.824219 233.410156 Z M 16.085938 58.839844 " clip-rule="nonzero"/></clipPath><clipPath id="30e6a23402"><path d="M 184 32 L 309 32 L 309 190 L 184 190 Z M 184 32 " clip-rule="nonzero"/></clipPath><clipPath id="3c1f1542c1"><path d="M 264.324219 -11.613281 L 358.777344 59.949219 L 227.433594 233.3125 L 132.980469 161.75 Z M 264.324219 -11.613281 " clip-rule="nonzero"/></clipPath><clipPath id="8d99a638b0"><path d="M 264.324219 -11.613281 L 358.777344 59.949219 L 227.433594 233.3125 L 132.980469 161.75 Z M 264.324219 -11.613281 " clip-rule="nonzero"/></clipPath></defs><g clip-path="url(#393c0ac368)"><g clip-path="url(#b1eeeb34ef)"><g clip-path="url(#55e5e7bd9f)"><path fill="#ffffff" d="M 168.636719 80.914062 C 201.027344 124.496094 187.574219 189.332031 187.574219 189.332031 C 187.574219 189.332031 120.695312 184.199219 88.304688 140.617188 C 55.914062 97.035156 70.28125 31.511719 70.28125 31.511719 C 70.28125 31.511719 136.246094 37.332031 168.636719 80.914062 " fill-opacity="1" fill-rule="nonzero"/></g></g></g><g clip-path="url(#30e6a23402)"><g clip-path="url(#3c1f1542c1)"><g clip-path="url(#8d99a638b0)"><path fill="#ffffff" d="M 285.773438 141.027344 C 252.980469 184.308594 186.96875 189.515625 186.96875 189.515625 C 186.96875 189.515625 173.203125 123.867188 205.996094 80.585938 C 238.789062 37.304688 305.714844 32.785156 305.714844 32.785156 C 305.714844 32.785156 318.566406 97.746094 285.773438 141.027344 " fill-opacity="1" fill-rule="nonzero"/></g></g></g><g fill="#ffffff" fill-opacity="1"><g transform="translate(71.870839, 256.208364)"><g><path d="M 27.46875 0.71875 C 22.84375 0.71875 18.765625 -0.242188 15.234375 -2.171875 C 11.703125 -4.097656 8.9375 -6.988281 6.9375 -10.84375 C 4.945312 -14.707031 3.953125 -19.472656 3.953125 -25.140625 C 3.953125 -30.796875 4.945312 -35.554688 6.9375 -39.421875 C 8.9375 -43.285156 11.703125 -46.179688 15.234375 -48.109375 C 18.765625 -50.035156 22.84375 -51 27.46875 -51 C 32.3125 -51 36.421875 -50.050781 39.796875 -48.15625 C 43.179688 -46.269531 45.597656 -43.390625 47.046875 -39.515625 L 39.78125 -35.078125 L 38.921875 -35.109375 C 37.847656 -37.722656 36.382812 -39.597656 34.53125 -40.734375 C 32.6875 -41.867188 30.332031 -42.4375 27.46875 -42.4375 C 23.300781 -42.4375 20.046875 -41.050781 17.703125 -38.28125 C 15.367188 -35.519531 14.203125 -31.140625 14.203125 -25.140625 C 14.203125 -19.148438 15.367188 -14.773438 17.703125 -12.015625 C 20.046875 -9.253906 23.300781 -7.875 27.46875 -7.875 C 34.007812 -7.875 38.007812 -11.050781 39.46875 -17.40625 L 40.328125 -17.40625 L 47.65625 -13.578125 C 46.28125 -8.816406 43.929688 -5.242188 40.609375 -2.859375 C 37.285156 -0.472656 32.90625 0.71875 27.46875 0.71875 Z M 27.46875 0.71875 "/></g></g></g><g fill="#ffffff" fill-opacity="1"><g transform="translate(121.18253, 256.208364)"><g><path d="M 14.78125 0.71875 C 12.351562 0.71875 10.242188 0.273438 8.453125 -0.609375 C 6.671875 -1.503906 5.296875 -2.816406 4.328125 -4.546875 C 3.367188 -6.285156 2.890625 -8.367188 2.890625 -10.796875 C 2.890625 -13.046875 3.367188 -14.929688 4.328125 -16.453125 C 5.296875 -17.972656 6.785156 -19.21875 8.796875 -20.1875 C 10.816406 -21.164062 13.457031 -21.921875 16.71875 -22.453125 C 18.976562 -22.816406 20.695312 -23.21875 21.875 -23.65625 C 23.0625 -24.09375 23.859375 -24.585938 24.265625 -25.140625 C 24.679688 -25.691406 24.890625 -26.390625 24.890625 -27.234375 C 24.890625 -28.453125 24.460938 -29.378906 23.609375 -30.015625 C 22.765625 -30.660156 21.359375 -30.984375 19.390625 -30.984375 C 17.285156 -30.984375 15.28125 -30.507812 13.375 -29.5625 C 11.46875 -28.625 9.816406 -27.390625 8.421875 -25.859375 L 7.734375 -25.859375 L 3.75 -31.875 C 5.675781 -34.007812 8.023438 -35.671875 10.796875 -36.859375 C 13.566406 -38.054688 16.59375 -38.65625 19.875 -38.65625 C 24.894531 -38.65625 28.523438 -37.585938 30.765625 -35.453125 C 33.015625 -33.316406 34.140625 -30.289062 34.140625 -26.375 L 34.140625 -9.90625 C 34.140625 -8.207031 34.882812 -7.359375 36.375 -7.359375 C 36.945312 -7.359375 37.507812 -7.460938 38.0625 -7.671875 L 38.546875 -7.53125 L 39.234375 -0.890625 C 38.703125 -0.546875 37.96875 -0.265625 37.03125 -0.046875 C 36.09375 0.171875 35.0625 0.28125 33.9375 0.28125 C 31.664062 0.28125 29.894531 -0.15625 28.625 -1.03125 C 27.351562 -1.90625 26.441406 -3.269531 25.890625 -5.125 L 25.171875 -5.1875 C 23.316406 -1.25 19.851562 0.71875 14.78125 0.71875 Z M 17.8125 -6.390625 C 20.007812 -6.390625 21.765625 -7.128906 23.078125 -8.609375 C 24.398438 -10.085938 25.0625 -12.144531 25.0625 -14.78125 L 25.0625 -18.640625 L 24.40625 -18.78125 C 23.832031 -18.320312 23.082031 -17.9375 22.15625 -17.625 C 21.226562 -17.3125 19.894531 -17.007812 18.15625 -16.71875 C 16.09375 -16.375 14.609375 -15.78125 13.703125 -14.9375 C 12.796875 -14.101562 12.34375 -12.914062 12.34375 -11.375 C 12.34375 -9.75 12.820312 -8.507812 13.78125 -7.65625 C 14.75 -6.8125 16.09375 -6.390625 17.8125 -6.390625 Z M 17.8125 -6.390625 "/></g></g></g><g fill="#ffffff" fill-opacity="1"><g transform="translate(161.175205, 256.208364)"><g><path d="M 5.46875 0 L 5.46875 -37.921875 L 14.71875 -37.921875 L 14.71875 -32.28125 L 15.4375 -32.15625 C 16.351562 -34.257812 17.554688 -35.800781 19.046875 -36.78125 C 20.535156 -37.769531 22.347656 -38.265625 24.484375 -38.265625 C 26.640625 -38.265625 28.28125 -37.898438 29.40625 -37.171875 L 27.78125 -28.953125 L 27.0625 -28.8125 C 26.445312 -29.0625 25.847656 -29.242188 25.265625 -29.359375 C 24.691406 -29.472656 23.992188 -29.53125 23.171875 -29.53125 C 20.515625 -29.53125 18.484375 -28.597656 17.078125 -26.734375 C 15.679688 -24.867188 14.984375 -21.875 14.984375 -17.75 L 14.984375 0 Z M 5.46875 0 "/></g></g></g><g fill="#ffffff" fill-opacity="1"><g transform="translate(190.920402, 256.208364)"><g><path d="M 37.484375 -16.8125 L 13.09375 -16.8125 C 13.375 -13.507812 14.316406 -11.109375 15.921875 -9.609375 C 17.523438 -8.109375 19.710938 -7.359375 22.484375 -7.359375 C 24.660156 -7.359375 26.425781 -7.765625 27.78125 -8.578125 C 29.132812 -9.390625 30.222656 -10.625 31.046875 -12.28125 L 31.765625 -12.28125 L 38.09375 -8.21875 C 36.863281 -5.5625 35 -3.40625 32.5 -1.75 C 30 -0.101562 26.660156 0.71875 22.484375 0.71875 C 18.566406 0.71875 15.179688 -0.0234375 12.328125 -1.515625 C 9.472656 -3.003906 7.269531 -5.21875 5.71875 -8.15625 C 4.175781 -11.101562 3.40625 -14.703125 3.40625 -18.953125 C 3.40625 -23.253906 4.21875 -26.882812 5.84375 -29.84375 C 7.46875 -32.800781 9.664062 -35.007812 12.4375 -36.46875 C 15.21875 -37.925781 18.335938 -38.65625 21.796875 -38.65625 C 27.160156 -38.65625 31.269531 -37.234375 34.125 -34.390625 C 36.976562 -31.546875 38.40625 -27.375 38.40625 -21.875 C 38.40625 -19.875 38.335938 -18.328125 38.203125 -17.234375 Z M 29.296875 -22.96875 C 29.203125 -25.851562 28.53125 -27.953125 27.28125 -29.265625 C 26.03125 -30.585938 24.203125 -31.25 21.796875 -31.25 C 16.984375 -31.25 14.15625 -28.488281 13.3125 -22.96875 Z M 29.296875 -22.96875 "/></g></g></g><g fill="#ffffff" fill-opacity="1"><g transform="translate(232.151028, 256.208364)"><g><path d="M 37.484375 -16.8125 L 13.09375 -16.8125 C 13.375 -13.507812 14.316406 -11.109375 15.921875 -9.609375 C 17.523438 -8.109375 19.710938 -7.359375 22.484375 -7.359375 C 24.660156 -7.359375 26.425781 -7.765625 27.78125 -8.578125 C 29.132812 -9.390625 30.222656 -10.625 31.046875 -12.28125 L 31.765625 -12.28125 L 38.09375 -8.21875 C 36.863281 -5.5625 35 -3.40625 32.5 -1.75 C 30 -0.101562 26.660156 0.71875 22.484375 0.71875 C 18.566406 0.71875 15.179688 -0.0234375 12.328125 -1.515625 C 9.472656 -3.003906 7.269531 -5.21875 5.71875 -8.15625 C 4.175781 -11.101562 3.40625 -14.703125 3.40625 -18.953125 C 3.40625 -23.253906 4.21875 -26.882812 5.84375 -29.84375 C 7.46875 -32.800781 9.664062 -35.007812 12.4375 -36.46875 C 15.21875 -37.925781 18.335938 -38.65625 21.796875 -38.65625 C 27.160156 -38.65625 31.269531 -37.234375 34.125 -34.390625 C 36.976562 -31.546875 38.40625 -27.375 38.40625 -21.875 C 38.40625 -19.875 38.335938 -18.328125 38.203125 -17.234375 Z M 29.296875 -22.96875 C 29.203125 -25.851562 28.53125 -27.953125 27.28125 -29.265625 C 26.03125 -30.585938 24.203125 -31.25 21.796875 -31.25 C 16.984375 -31.25 14.15625 -28.488281 13.3125 -22.96875 Z M 29.296875 -22.96875 "/></g></g></g><g fill="#ffffff" fill-opacity="1"><g transform="translate(273.381653, 256.208364)"><g><path d="M 5.46875 0 L 5.46875 -37.921875 L 14.71875 -37.921875 L 14.71875 -32.28125 L 15.4375 -32.15625 C 16.351562 -34.257812 17.554688 -35.800781 19.046875 -36.78125 C 20.535156 -37.769531 22.347656 -38.265625 24.484375 -38.265625 C 26.640625 -38.265625 28.28125 -37.898438 29.40625 -37.171875 L 27.78125 -28.953125 L 27.0625 -28.8125 C 26.445312 -29.0625 25.847656 -29.242188 25.265625 -29.359375 C 24.691406 -29.472656 23.992188 -29.53125 23.171875 -29.53125 C 20.515625 -29.53125 18.484375 -28.597656 17.078125 -26.734375 C 15.679688 -24.867188 14.984375 -21.875 14.984375 -17.75 L 14.984375 0 Z M 5.46875 0 "/></g></g></g><g fill="#ffffff" fill-opacity="1"><g transform="translate(48.187491, 328.492781)"><g><path d="M 26.796875 0.703125 C 22.273438 0.703125 18.289062 -0.234375 14.84375 -2.109375 C 11.40625 -3.984375 8.710938 -6.804688 6.765625 -10.578125 C 4.828125 -14.347656 3.859375 -18.992188 3.859375 -24.515625 C 3.859375 -30.035156 4.828125 -34.675781 6.765625 -38.4375 C 8.710938 -42.207031 11.40625 -45.03125 14.84375 -46.90625 C 18.289062 -48.789062 22.273438 -49.734375 26.796875 -49.734375 C 31.503906 -49.734375 35.507812 -48.804688 38.8125 -46.953125 C 42.113281 -45.109375 44.46875 -42.300781 45.875 -38.53125 L 38.796875 -34.203125 L 37.953125 -34.234375 C 36.898438 -36.785156 35.472656 -38.613281 33.671875 -39.71875 C 31.878906 -40.820312 29.585938 -41.375 26.796875 -41.375 C 22.722656 -41.375 19.546875 -40.023438 17.265625 -37.328125 C 14.984375 -34.640625 13.84375 -30.367188 13.84375 -24.515625 C 13.84375 -18.679688 14.984375 -14.414062 17.265625 -11.71875 C 19.546875 -9.019531 22.722656 -7.671875 26.796875 -7.671875 C 33.160156 -7.671875 37.0625 -10.769531 38.5 -16.96875 L 39.328125 -16.96875 L 46.46875 -13.25 C 45.132812 -8.59375 42.84375 -5.101562 39.59375 -2.78125 C 36.351562 -0.457031 32.085938 0.703125 26.796875 0.703125 Z M 26.796875 0.703125 "/></g></g></g><g fill="#ffffff" fill-opacity="1"><g transform="translate(96.271956, 328.492781)"><g><path d="M 14.421875 0.703125 C 12.046875 0.703125 9.988281 0.269531 8.25 -0.59375 C 6.507812 -1.46875 5.164062 -2.75 4.21875 -4.4375 C 3.28125 -6.125 2.8125 -8.15625 2.8125 -10.53125 C 2.8125 -12.71875 3.28125 -14.554688 4.21875 -16.046875 C 5.164062 -17.535156 6.617188 -18.753906 8.578125 -19.703125 C 10.546875 -20.648438 13.117188 -21.378906 16.296875 -21.890625 C 18.503906 -22.253906 20.179688 -22.644531 21.328125 -23.0625 C 22.484375 -23.488281 23.265625 -23.96875 23.671875 -24.5 C 24.078125 -25.039062 24.28125 -25.726562 24.28125 -26.5625 C 24.28125 -27.738281 23.863281 -28.640625 23.03125 -29.265625 C 22.207031 -29.898438 20.832031 -30.21875 18.90625 -30.21875 C 16.851562 -30.21875 14.898438 -29.757812 13.046875 -28.84375 C 11.191406 -27.925781 9.582031 -26.71875 8.21875 -25.21875 L 7.546875 -25.21875 L 3.65625 -31.078125 C 5.53125 -33.160156 7.820312 -34.78125 10.53125 -35.9375 C 13.238281 -37.101562 16.1875 -37.6875 19.375 -37.6875 C 24.269531 -37.6875 27.8125 -36.644531 30 -34.5625 C 32.195312 -32.488281 33.296875 -29.539062 33.296875 -25.71875 L 33.296875 -9.65625 C 33.296875 -8 34.019531 -7.171875 35.46875 -7.171875 C 36.03125 -7.171875 36.582031 -7.273438 37.125 -7.484375 L 37.59375 -7.34375 L 38.265625 -0.875 C 37.742188 -0.539062 37.023438 -0.265625 36.109375 -0.046875 C 35.191406 0.160156 34.1875 0.265625 33.09375 0.265625 C 30.882812 0.265625 29.15625 -0.15625 27.90625 -1 C 26.664062 -1.851562 25.78125 -3.1875 25.25 -5 L 24.546875 -5.0625 C 22.734375 -1.21875 19.359375 0.703125 14.421875 0.703125 Z M 17.375 -6.234375 C 19.519531 -6.234375 21.234375 -6.953125 22.515625 -8.390625 C 23.796875 -9.835938 24.4375 -11.847656 24.4375 -14.421875 L 24.4375 -18.171875 L 23.8125 -18.3125 C 23.25 -17.863281 22.515625 -17.488281 21.609375 -17.1875 C 20.703125 -16.882812 19.398438 -16.585938 17.703125 -16.296875 C 15.691406 -15.960938 14.242188 -15.382812 13.359375 -14.5625 C 12.472656 -13.75 12.03125 -12.59375 12.03125 -11.09375 C 12.03125 -9.507812 12.5 -8.300781 13.4375 -7.46875 C 14.382812 -6.644531 15.695312 -6.234375 17.375 -6.234375 Z M 17.375 -6.234375 "/></g></g></g><g fill="#ffffff" fill-opacity="1"><g transform="translate(135.26933, 328.492781)"><g><path d="M 25.515625 -8.8125 L 27.9375 -1.9375 C 26.925781 -1.113281 25.660156 -0.46875 24.140625 0 C 22.617188 0.46875 20.898438 0.703125 18.984375 0.703125 C 14.984375 0.703125 11.941406 -0.382812 9.859375 -2.5625 C 7.773438 -4.738281 6.734375 -7.910156 6.734375 -12.078125 L 6.734375 -29.640625 L 1.109375 -29.640625 L 1.109375 -37.015625 L 6.734375 -37.015625 L 6.734375 -44.234375 L 16.03125 -45.734375 L 16.03125 -37.015625 L 26.515625 -37.015625 L 26.515625 -29.640625 L 16.03125 -29.640625 L 16.03125 -12.734375 C 16.03125 -10.910156 16.410156 -9.578125 17.171875 -8.734375 C 17.929688 -7.898438 19.035156 -7.484375 20.484375 -7.484375 C 22.140625 -7.484375 23.582031 -7.925781 24.8125 -8.8125 Z M 25.515625 -8.8125 "/></g></g></g><g fill="#ffffff" fill-opacity="1"><g transform="translate(164.006001, 328.492781)"><g><path d="M 14.421875 0.703125 C 12.046875 0.703125 9.988281 0.269531 8.25 -0.59375 C 6.507812 -1.46875 5.164062 -2.75 4.21875 -4.4375 C 3.28125 -6.125 2.8125 -8.15625 2.8125 -10.53125 C 2.8125 -12.71875 3.28125 -14.554688 4.21875 -16.046875 C 5.164062 -17.535156 6.617188 -18.753906 8.578125 -19.703125 C 10.546875 -20.648438 13.117188 -21.378906 16.296875 -21.890625 C 18.503906 -22.253906 20.179688 -22.644531 21.328125 -23.0625 C 22.484375 -23.488281 23.265625 -23.96875 23.671875 -24.5 C 24.078125 -25.039062 24.28125 -25.726562 24.28125 -26.5625 C 24.28125 -27.738281 23.863281 -28.640625 23.03125 -29.265625 C 22.207031 -29.898438 20.832031 -30.21875 18.90625 -30.21875 C 16.851562 -30.21875 14.898438 -29.757812 13.046875 -28.84375 C 11.191406 -27.925781 9.582031 -26.71875 8.21875 -25.21875 L 7.546875 -25.21875 L 3.65625 -31.078125 C 5.53125 -33.160156 7.820312 -34.78125 10.53125 -35.9375 C 13.238281 -37.101562 16.1875 -37.6875 19.375 -37.6875 C 24.269531 -37.6875 27.8125 -36.644531 30 -34.5625 C 32.195312 -32.488281 33.296875 -29.539062 33.296875 -25.71875 L 33.296875 -9.65625 C 33.296875 -8 34.019531 -7.171875 35.46875 -7.171875 C 36.03125 -7.171875 36.582031 -7.273438 37.125 -7.484375 L 37.59375 -7.34375 L 38.265625 -0.875 C 37.742188 -0.539062 37.023438 -0.265625 36.109375 -0.046875 C 35.191406 0.160156 34.1875 0.265625 33.09375 0.265625 C 30.882812 0.265625 29.15625 -0.15625 27.90625 -1 C 26.664062 -1.851562 25.78125 -3.1875 25.25 -5 L 24.546875 -5.0625 C 22.734375 -1.21875 19.359375 0.703125 14.421875 0.703125 Z M 17.375 -6.234375 C 19.519531 -6.234375 21.234375 -6.953125 22.515625 -8.390625 C 23.796875 -9.835938 24.4375 -11.847656 24.4375 -14.421875 L 24.4375 -18.171875 L 23.8125 -18.3125 C 23.25 -17.863281 22.515625 -17.488281 21.609375 -17.1875 C 20.703125 -16.882812 19.398438 -16.585938 17.703125 -16.296875 C 15.691406 -15.960938 14.242188 -15.382812 13.359375 -14.5625 C 12.472656 -13.75 12.03125 -12.59375 12.03125 -11.09375 C 12.03125 -9.507812 12.5 -8.300781 13.4375 -7.46875 C 14.382812 -6.644531 15.695312 -6.234375 17.375 -6.234375 Z M 17.375 -6.234375 "/></g></g></g><g fill="#ffffff" fill-opacity="1"><g transform="translate(203.003375, 328.492781)"><g><path d="M 15.359375 0.703125 C 12.023438 0.703125 9.476562 -0.191406 7.71875 -1.984375 C 5.96875 -3.785156 5.09375 -6.519531 5.09375 -10.1875 L 5.09375 -51.84375 L 14.390625 -51.84375 L 14.390625 -10.5625 C 14.390625 -8.300781 15.328125 -7.171875 17.203125 -7.171875 C 17.734375 -7.171875 18.300781 -7.257812 18.90625 -7.4375 L 19.375 -7.3125 L 20.21875 -0.171875 C 19.707031 0.0976562 19.023438 0.3125 18.171875 0.46875 C 17.328125 0.625 16.390625 0.703125 15.359375 0.703125 Z M 15.359375 0.703125 "/></g></g></g><g fill="#ffffff" fill-opacity="1"><g transform="translate(224.262476, 328.492781)"><g><path d="M 8.1875 15.6875 C 6.59375 15.6875 5.148438 15.5625 3.859375 15.3125 C 2.578125 15.070312 1.535156 14.75 0.734375 14.34375 L 2.21875 6.84375 L 2.8125 6.640625 C 3.375 6.929688 4.066406 7.164062 4.890625 7.34375 C 5.722656 7.519531 6.570312 7.609375 7.4375 7.609375 C 8.9375 7.609375 10.179688 7.410156 11.171875 7.015625 C 12.171875 6.628906 13.015625 5.984375 13.703125 5.078125 C 14.398438 4.171875 15.019531 2.914062 15.5625 1.3125 L 0.8125 -36.984375 L 10.53125 -36.984375 L 19.71875 -11.265625 L 20.515625 -11.265625 L 29.46875 -36.984375 L 38.9375 -36.984375 L 24.078125 2.3125 C 22.890625 5.488281 21.585938 8.039062 20.171875 9.96875 C 18.753906 11.90625 17.078125 13.34375 15.140625 14.28125 C 13.203125 15.21875 10.882812 15.6875 8.1875 15.6875 Z M 8.1875 15.6875 "/></g></g></g><g fill="#ffffff" fill-opacity="1"><g transform="translate(263.964015, 328.492781)"><g><path d="M 17.296875 0.703125 C 14.773438 0.703125 12.460938 0.40625 10.359375 -0.1875 C 8.253906 -0.78125 6.457031 -1.59375 4.96875 -2.625 C 3.488281 -3.664062 2.390625 -4.859375 1.671875 -6.203125 L 6.84375 -11.765625 L 7.546875 -11.765625 C 8.773438 -10.109375 10.226562 -8.867188 11.90625 -8.046875 C 13.582031 -7.222656 15.40625 -6.8125 17.375 -6.8125 C 19.175781 -6.8125 20.535156 -7.132812 21.453125 -7.78125 C 22.367188 -8.425781 22.828125 -9.351562 22.828125 -10.5625 C 22.828125 -11.5 22.5 -12.285156 21.84375 -12.921875 C 21.1875 -13.554688 20.117188 -14.054688 18.640625 -14.421875 L 13.75 -15.59375 C 10.082031 -16.46875 7.40625 -17.800781 5.71875 -19.59375 C 4.03125 -21.394531 3.1875 -23.679688 3.1875 -26.453125 C 3.1875 -28.753906 3.769531 -30.753906 4.9375 -32.453125 C 6.113281 -34.148438 7.769531 -35.445312 9.90625 -36.34375 C 12.039062 -37.238281 14.53125 -37.6875 17.375 -37.6875 C 20.695312 -37.6875 23.453125 -37.207031 25.640625 -36.25 C 27.835938 -35.289062 29.550781 -34.003906 30.78125 -32.390625 L 25.8125 -27.03125 L 25.140625 -27.03125 C 24.117188 -28.1875 22.960938 -29.03125 21.671875 -29.5625 C 20.390625 -30.101562 18.957031 -30.375 17.375 -30.375 C 13.707031 -30.375 11.875 -29.234375 11.875 -26.953125 C 11.875 -25.992188 12.210938 -25.210938 12.890625 -24.609375 C 13.578125 -24.003906 14.78125 -23.515625 16.5 -23.140625 L 21.0625 -22.125 C 24.8125 -21.320312 27.550781 -20.03125 29.28125 -18.25 C 31.019531 -16.476562 31.890625 -14.09375 31.890625 -11.09375 C 31.890625 -8.75 31.304688 -6.679688 30.140625 -4.890625 C 28.984375 -3.109375 27.304688 -1.726562 25.109375 -0.75 C 22.921875 0.21875 20.316406 0.703125 17.296875 0.703125 Z M 17.296875 0.703125 "/></g></g></g><g fill="#ffffff" fill-opacity="1"><g transform="translate(298.065759, 328.492781)"><g><path d="M 25.515625 -8.8125 L 27.9375 -1.9375 C 26.925781 -1.113281 25.660156 -0.46875 24.140625 0 C 22.617188 0.46875 20.898438 0.703125 18.984375 0.703125 C 14.984375 0.703125 11.941406 -0.382812 9.859375 -2.5625 C 7.773438 -4.738281 6.734375 -7.910156 6.734375 -12.078125 L 6.734375 -29.640625 L 1.109375 -29.640625 L 1.109375 -37.015625 L 6.734375 -37.015625 L 6.734375 -44.234375 L 16.03125 -45.734375 L 16.03125 -37.015625 L 26.515625 -37.015625 L 26.515625 -29.640625 L 16.03125 -29.640625 L 16.03125 -12.734375 C 16.03125 -10.910156 16.410156 -9.578125 17.171875 -8.734375 C 17.929688 -7.898438 19.035156 -7.484375 20.484375 -7.484375 C 22.140625 -7.484375 23.582031 -7.925781 24.8125 -8.8125 Z M 25.515625 -8.8125 "/></g></g></g></svg>